# xmcd
#
# Track frame offsets:
#	150
#	16137
#	28642
#	42610
#	56872
#	71895
#	84997
#	98690
#	112732
#	126170
#	139425
#	152450
#	166302
#	179685
#
# Disc length: 2610 seconds
#
# Revision: 1
# Processed by: cddbd v1.4PL0 Copyright (c) Steve Scherf et al.
# Submitted via: audiograbber 1.81.01
#
DISCID=bc0a300e
DTITLE=Nockalm Quintett - Wenn eine Sehnsucht bleibt
DYEAR=1900
DGENRE=Voksmusik
TTITLE0=Der Himmel spielte Hollywood
TTITLE1=Tränen hinter'm Horizont
TTITLE2=Lust auf Liebe
TTITLE3=Wenn eine Sehnsucht bleibt
TTITLE4=Manche Träume sterben jung
TTITLE5=Sorry Marlen!
TTITLE6=Gipsy Lady
TTITLE7=Saloniki bei Nacht
TTITLE8=Gina, das ist die Liebe
TTITLE9=Wenn dir noch Tränen bleiben
TTITLE10=Du bist das Mädchen für mich
TTITLE11=Girlie
TTITLE12=Sandy
TTITLE13=Oh, oh Amore
EXTD=
EXTT0=
EXTT1=
EXTT2=
EXTT3=
EXTT4=
EXTT5=
EXTT6=
EXTT7=
EXTT8=
EXTT9=
EXTT10=
EXTT11=
EXTT12=
EXTT13=
PLAYORDER=
